<?xml version="1.0" encoding="UTF-8" standalone="no"?>
<svg xmlns="http://www.w3.org/2000/svg" version="1.1" width="24" height="24" viewBox="0 0 24 24">
  <circle cx="12" cy="12" r="12" fill="#ffffff"/>
  <g transform="translate(3,3) scale(0.009)">
    <path d="M1240,291.7c-11.3,0.8-43.8,5.3-51.1,7.2-12.4,3.2-20.5,7.6-28.5,15.7-6,6-8,9-13.2,19.5-10.4,21.2-10.7,22.9-10.7,53.9 0.1,16.8 0.7,33.6 1.8,46 3.1,34.2 6.6,69.6 10.2,102 11,100 14.2,162 11.5,220.5-6.1,129.7-30.7,258.3-75,391.3-22,66.1-59.4,153.6-74.5,174.1-4,5.4-4.8,6-6.5,5.1-4.3-2.3-6.2-9-11-37.7-7.3-44.2-10-85.2-10-150.8 0-93.8 8.1-203.1 23.6-320 1.9-14.9 4.6-35.1 5.9-45 1.3-9.9 4.2-31.3 6.4-47.5 8.9-65.2 14-117.2 14.8-149.5 0.5-22.6 0.5-23.2-2.1-33-9.1-34.5-32.4-59.9-63.6-69.6-10.9-3.4-29.4-3.4-40 0-15.3,4.8-30.1,13.4-40,23.2-16.2,16.3-26.3,39.2-43,97.9-24,84.1-68.7,213.1-101.3,292-30.3,73.5-112,243.8-115.8,241.5-1.5-1 2.9-24.3 11.3-59.5 7.3-30.8 12.7-51.2 25.7-96.9 5.5-19.1 12.4-44.7 15.5-57 13.7-54 58.1-192.3 75.8-236.1 7.3-18 10.4-23.8 15.8-29.6 4-4.2 5.3-6.6 7.8-14.5 1.6-5.2 3.8-13.9 4.7-19.4 2.8-15.5 12.2-58.5 16.1-73.4 7.6-29.3 9.4-50.2 5.4-65.5-3.5-13.6-9.7-20.9-28-33.1-12.6-8.4-16.7-9.4-28.7-7.1-12,2.4-26.9,7.5-33.9,11.7-7.5,4.4-21.3,18.1-28.7,28.5-16.5,23.3-45.1,75.2-64.2,116.4-9.3,19.9-30.3,69-41.3,96.5-70.7,176.2-120.6,361.6-146.1,543.5-14.6,103.6-17.2,169.2-8.5,212.3 7.5,37.4 30.9,64.4 64.1,73.9 10.1,2.9 28.9,3.1 40.5,0.5 38.3-8.9 62.7-34.1 103-106.7 17.6-31.6 56.4-109.5 81.8-164.5 14.1-30.2 52.2-105.7 53-104.8 1.4,1.4 4.4,29.6 9.5,89.3 6,68.4 17.8,140.6 31.5,191 14.5,53.6 36.8,95.2 66.9,125 22.7,22.5 48.3,36.5 77.1,42.1 9.2,1.8 15.1,2.2 29.5,2.3 17 0 18.6-0.2 29.5-3.1 33.9-9 70.8-33.1 97.9-63.9 59.4-67.4 111.3-184.4 165.6-372.9 42.2-146.4 66.5-286.4 66.5-382 0-57.5-6.3-131-15.6-181.5-5.4-29.6-16.1-65.5-34.6-116-20.1-55.1-34.8-96-34.8-97.1 0-0.6 4.1-5.6 9.1-11.1 15.7-17.3 20.4-26.5 20.3-39.8 0-17.1-11.1-29.7-29.3-33.6-3.6-0.7-7.9-1.3-9.6-1.2-1.6,0.1-5.5,0.3-8.5,0.5z" fill="#2e3d4f"/>
  </g>
</svg>
