<?xml version="1.0" standalone="no"?>
<!DOCTYPE svg PUBLIC "-//W3C//DTD SVG 20010904//EN"
 "http://www.w3.org/TR/2001/REC-SVG-20010904/DTD/svg10.dtd">
<svg version="1.0" xmlns="http://www.w3.org/2000/svg"
 width="2000.000000pt" height="2000.000000pt" viewBox="0 0 2000.000000 2000.000000"
 preserveAspectRatio="xMidYMid meet">

<g transform="translate(0.000000,2000.000000) scale(0.100000,-0.100000)"
fill="#000000" stroke="none">
<path d="M12400 17083 c-113 -8 -438 -53 -511 -72 -124 -32 -205 -76 -285
-157 -60 -60 -80 -90 -132 -195 -104 -212 -107 -229 -107 -539 1 -168 7 -336
18 -460 31 -342 66 -696 102 -1020 110 -1000 142 -1620 115 -2205 -61 -1297
-307 -2583 -750 -3913 -220 -661 -594 -1536 -745 -1741 -40 -54 -48 -60 -65
-51 -43 23 -62 90 -110 377 -73 442 -100 852 -100 1508 0 938 81 2031 236
3200 19 149 46 351 59 450 13 99 42 313 64 475 89 652 140 1172 148 1495 5
226 5 232 -21 330 -91 345 -324 599 -636 696 -109 34 -294 34 -400 0 -153 -48
-301 -134 -400 -232 -162 -163 -263 -392 -430 -979 -240 -841 -687 -2131
-1013 -2920 -303 -735 -1120 -2438 -1158 -2415 -15 10 29 243 113 595 73 308
127 512 257 969 55 191 124 447 155 570 137 540 581 1923 758 2361 73 180 104
238 158 296 40 42 53 66 78 145 16 52 38 139 47 194 28 155 122 585 161 734
76 293 94 502 54 655 -35 136 -97 209 -280 331 -126 84 -167 94 -287 71 -120
-24 -269 -75 -339 -117 -75 -44 -213 -181 -287 -285 -165 -233 -451 -752 -642
-1164 -93 -199 -303 -690 -413 -965 -707 -1762 -1206 -3616 -1461 -5435 -146
-1036 -172 -1692 -85 -2123 75 -374 309 -644 641 -739 101 -29 289 -31 405 -5
383 89 627 341 1030 1067 176 316 564 1095 818 1645 141 302 522 1057 530
1048 14 -14 44 -296 95 -893 60 -684 178 -1406 315 -1910 145 -536 368 -952
669 -1250 227 -225 483 -365 771 -421 92 -18 151 -22 295 -23 170 0 186 2 295
31 339 90 708 331 979 639 594 674 1113 1844 1656 3729 422 1464 665 2864 665
3820 0 575 -63 1310 -156 1815 -54 296 -161 655 -346 1160 -201 551 -348 960
-348 971 0 6 41 56 91 111 157 173 204 265 203 398 0 171 -111 297 -293 336
-36 7 -79 13 -96 12 -16 -1 -55 -3 -85 -5z"/>
<path d="M13247 7665 c-22 -7 -50 -23 -63 -36 -50 -47 -56 -139 -14 -199 38
-53 62 -59 252 -64 199 -4 315 -22 473 -73 352 -113 650 -339 856 -647 139
-206 221 -427 254 -681 10 -75 24 -136 37 -163 55 -111 215 -107 269 6 21 41
21 49 10 150 -64 581 -377 1091 -866 1412 -177 116 -446 226 -656 269 -197 41
-476 54 -552 26z"/>
<path d="M13211 7118 c-84 -44 -111 -120 -72 -200 34 -71 74 -88 214 -88 307
0 563 -103 789 -319 186 -177 304 -410 338 -672 15 -112 38 -158 92 -189 69
-39 149 -17 202 54 27 36 26 140 -3 283 -102 498 -463 909 -941 1073 -147 51
-258 70 -425 76 -143 5 -152 5 -194 -18z"/>
<path d="M13231 6549 c-54 -38 -75 -73 -75 -127 0 -59 27 -109 73 -136 26 -15
57 -20 130 -23 124 -4 208 -30 302 -91 141 -92 221 -215 257 -394 11 -54 27
-109 36 -123 59 -90 198 -85 257 7 18 29 20 44 15 118 -14 244 -160 493 -376
640 -148 101 -268 140 -455 147 -124 5 -131 4 -164 -18z"/>
<path d="M12928 6150 c-292 -47 -475 -191 -627 -497 -143 -287 -207 -684 -146
-916 29 -113 53 -153 137 -232 183 -172 370 -206 606 -110 157 64 316 178 481
345 229 232 388 478 426 657 46 214 -14 421 -166 575 -83 85 -164 130 -289
162 -77 20 -337 29 -422 16z"/>
</g>
</svg>
